<svg id="Line" height="512" viewBox="0 0 64 64" width="512" xmlns="http://www.w3.org/2000/svg"><g fill="#c4a2fc"><circle cx="22" cy="44" r="5"/><path d="m22 51a9.01 9.01 0 0 0 -9 9 3 3 0 0 0 3 3h12a3 3 0 0 0 3-3 9.01 9.01 0 0 0 -9-9z"/><circle cx="54" cy="44" r="5"/><path d="m54 51a9.01 9.01 0 0 0 -9 9 3 3 0 0 0 3 3h12a3 3 0 0 0 3-3 9.01 9.01 0 0 0 -9-9z"/><circle cx="54" cy="18" r="5"/><path d="m48 37h12a3 3 0 0 0 3-3 9 9 0 0 0 -18 0 3 3 0 0 0 3 3z"/><path d="m42 57h-8a1 1 0 0 0 0 2h8a1 1 0 0 0 0-2z"/><path d="m42 27h-8a1 1 0 0 0 0 2h8a1 1 0 0 0 0-2z"/></g><path d="m47.631 22.064a22.058 22.058 0 0 0 -17.695-17.695 3.984 3.984 0 0 0 -7.872 0 22.058 22.058 0 0 0 -17.695 17.7 3.984 3.984 0 0 0 0 7.872 22.058 22.058 0 0 0 17.7 17.7 3.984 3.984 0 0 0 7.872 0 22.058 22.058 0 0 0 17.7-17.695 3.984 3.984 0 0 0 0-7.872zm-21.631-19.064a2 2 0 0 1 2 2l-.008.146a2 2 0 0 1 -3.984 0c0-.025 0-.122-.008-.146a2 2 0 0 1 2-2zm-21 25a2 2 0 0 1 0-4l.146.008a2 2 0 0 1 0 3.984c-.025.002-.122.008-.146.008zm21 21a2 2 0 0 1 -2-2l.008-.146a1.993 1.993 0 0 1 1.992-1.854 2.013 2.013 0 0 1 2 1.921v.079a2 2 0 0 1 -2 2zm3.766-3.353a4 4 0 0 0 -7.532 0 20.075 20.075 0 0 1 -15.881-15.881 4 4 0 0 0 0-7.532 20.075 20.075 0 0 1 15.881-15.881 4 4 0 0 0 7.532 0 20.075 20.075 0 0 1 15.881 15.881 4 4 0 0 0 0 7.532 20.075 20.075 0 0 1 -15.881 15.881zm17.234-17.647-.146-.008a2 2 0 0 1 0-3.984c.025 0 .122 0 .146-.008a2 2 0 0 1 0 4z" fill="#151a6a"/><path d="m26 25a6 6 0 1 0 -6-6 6.006 6.006 0 0 0 6 6zm0-10a4 4 0 1 1 -4 4 4 4 0 0 1 4-4z" fill="#151a6a"/><path d="m26 27a9.01 9.01 0 0 0 -9 9 3 3 0 0 0 3 3h12a3 3 0 0 0 3-3 9.01 9.01 0 0 0 -9-9zm6 10h-12a1 1 0 0 1 -1-1 7 7 0 0 1 14 0 1 1 0 0 1 -1 1z" fill="#151a6a"/></svg>