<svg height="496pt" viewBox="0 0 496 496" width="496pt" xmlns="http://www.w3.org/2000/svg" xmlns:xlink="http://www.w3.org/1999/xlink"><linearGradient id="a" gradientUnits="userSpaceOnUse" x1="248" x2="248" y1="496" y2="0"><stop offset="0" stop-color="#9f2fff"/><stop offset="1" stop-color="#0bb1d3"/></linearGradient><path d="m176 296c0-26.742188-16.503906-49.679688-39.855469-59.230469 4.832031-5.609375 7.855469-12.808593 7.855469-20.769531v-16c0-17.648438-14.351562-32-32-32s-32 14.351562-32 32v16c0 7.960938 3.023438 15.160156 7.855469 20.769531-23.351563 9.550781-39.855469 32.488281-39.855469 59.230469v16h128zm-80-80v-16c0-8.824219 7.175781-16 16-16s16 7.175781 16 16v16c0 8.824219-7.175781 16-16 16s-16-7.175781-16-16zm-32 80c0-26.472656 21.527344-48 48-48s48 21.527344 48 48zm359.144531-210.023438c5.457031-5.746093 8.855469-13.457031 8.855469-21.976562 0-17.648438-14.351562-32-32-32s-32 14.351562-32 32c0 8.519531 3.398438 16.230469 8.855469 21.976562-14.800781 8.183594-24.855469 23.945313-24.855469 42.023438v16h96v-16c0-18.078125-10.054688-33.839844-24.855469-42.023438zm-39.144531-21.976562c0-8.824219 7.175781-16 16-16s16 7.175781 16 16-7.175781 16-16 16-16-7.175781-16-16zm-16 64c0-17.648438 14.351562-32 32-32s32 14.351562 32 32zm0 240c0 8.519531 3.398438 16.230469 8.855469 21.976562-14.800781 8.183594-24.855469 23.945313-24.855469 42.023438v16h96v-16c0-18.078125-10.054688-33.839844-24.855469-42.023438 5.457031-5.746093 8.855469-13.457031 8.855469-21.976562 0-17.648438-14.351562-32-32-32s-32 14.351562-32 32zm0 64c0-17.648438 14.351562-32 32-32s32 14.351562 32 32zm48-64c0 8.824219-7.175781 16-16 16s-16-7.175781-16-16 7.175781-16 16-16 16 7.175781 16 16zm80-272c0-52.9375-43.0625-96-96-96-33.839844 0-63.574219 17.640625-80.679688 44.167969-22.945312-8.046875-46.894531-12.167969-71.320312-12.167969-12.039062 0-24.070312 1.054688-35.863281 3.03125-4.28125-6.617188-11.6875-11.03125-20.136719-11.03125-13.007812 0-23.574219 10.425781-23.9375 23.34375-49.007812 19.585938-90.0625 57.367188-113.597656 104.746094-32.5625 19.605468-54.464844 55.207031-54.464844 95.910156 0 40.734375 21.929688 76.351562 54.527344 95.953125 19.570312 39.359375 51.214844 72.183594 89.738281 93.359375-.097656.894531-.265625 1.765625-.265625 2.6875 0 13.230469 10.769531 24 24 24 7.542969 0 14.199219-3.566406 18.601562-9.023438 19.871094 5.886719 40.46875 9.023438 61.398438 9.023438 24.425781 0 48.375-4.121094 71.320312-12.167969 17.105469 26.527344 46.839844 44.167969 80.679688 44.167969 52.9375 0 96-43.0625 96-96 0-33.839844-17.640625-63.574219-44.167969-80.679688 8.046875-22.945312 12.167969-46.894531 12.167969-71.320312 0-24.351562-4.097656-48.238281-12.097656-71.128906 26.722656-17.101563 44.097656-47.015625 44.097656-80.871094zm-184.375-37.480469c-4.90625 11.519531-7.625 24.191407-7.625 37.480469 0 39.289062 24.191406 74.398438 59.945312 88.921875l-49.121093 16.375c-4.390625-5.617187-11.160157-9.296875-18.824219-9.296875-1.753906 0-3.449219.214844-5.097656.566406l-80.253906-129.644531c2.757812-3.441406 4.550781-7.609375 5.078124-12.210937 31.882813-5.167969 65.058594-2.527344 95.898438 7.808593zm-15.625 165.480469c-4.40625 0-8-3.59375-8-8s3.59375-8 8-8 8 3.59375 8 8-3.59375 8-8 8zm-104-184c4.40625 0 8 3.59375 8 8s-3.59375 8-8 8-8-3.59375-8-8 3.59375-8 8-8zm-18.824219 22.703125c4.390625 5.617187 11.160157 9.296875 18.824219 9.296875 1.753906 0 3.449219-.214844 5.097656-.566406l80.253906 129.644531c-.449218.5625-.945312 1.082031-1.335937 1.683594l-52.246094-13.066407c-1.183593-12.144531-11.320312-21.695312-23.769531-21.695312-2.921875 0-5.6875.601562-8.28125 1.558594-21-21.320313-49.628906-33.558594-79.71875-33.558594-11.382812 0-22.367188 1.734375-32.726562 4.902344 22.335937-34.964844 55.421874-62.605469 93.902343-78.199219zm26.824219 121.296875c4.40625 0 8 3.59375 8 8s-3.59375 8-8 8-8-3.59375-8-8 3.59375-8 8-8zm-184 64c0-52.9375 43.0625-96 96-96 25.351562 0 49.511719 10.128906 67.425781 27.839844-2.121093 3.574218-3.425781 7.703125-3.425781 12.160156 0 13.230469 10.769531 24 24 24 .800781 0 1.558594-.160156 2.34375-.238281 3.6875 10.316406 5.65625 21.109375 5.65625 32.238281 0 52.9375-43.0625 96-96 96s-96-43.0625-96-96zm63.273438 107.097656c10.359374 3.175782 21.34375 4.902344 32.726562 4.902344 61.761719 0 112-50.238281 112-112 0-13.464844-2.488281-26.519531-7.121094-38.96875 1.160156-1.152344 2.199219-2.421875 3.113282-3.792969l52.246093 13.066407c.488281 5.054687 2.515625 9.617187 5.65625 13.261718l-105.636719 184.867188c-1.386718-.25-2.800781-.433594-4.257812-.433594-6.527344 0-12.441406 2.640625-16.777344 6.878906-29.191406-16.214844-54.03125-39.679687-71.949218-67.78125zm88.726562 92.902344c-4.40625 0-8-3.59375-8-8s3.59375-8 8-8 8 3.59375 8 8-3.59375 8-8 8zm23.984375-8.136719c-.03125-5.910156-2.28125-11.261719-5.871094-15.4375l105.628907-184.859375c.027343.007813.050781 0 .082031.007813l16.582031 99.539062c-7.359375 4.101563-12.40625 11.878907-12.40625 20.886719 0 8.078125 4.046875 15.214844 10.183594 19.558594-1.449219 6.6875-2.183594 13.539062-2.183594 20.441406 0 13.265625 2.710938 25.910156 7.601562 37.414062-38.640624 12.9375-80.761718 13.746094-119.617187 2.449219zm128.015625-71.863281c-4.40625 0-8-3.59375-8-8s3.59375-8 8-8 8 3.59375 8 8-3.59375 8-8 8zm160 32c0 44.113281-35.886719 80-80 80s-80-35.886719-80-80c0-5.480469.742188-10.871094 1.839844-16.183594 12.359375-.960937 22.160156-11.207031 22.160156-23.816406 0-4.769531-1.433594-9.191406-3.839844-12.929688 15.191406-17.222656 36.609375-27.070312 59.839844-27.070312 44.113281 0 80 35.886719 80 80zm-32-152c0 21.761719-3.695312 43.078125-10.601562 63.59375-11.496094-4.890625-24.132813-7.59375-37.398438-7.59375-28.246094 0-54.246094 12.136719-72.511719 33.3125-1.082031-.359375-2.167969-.6875-3.304687-.886719l-16.589844-99.546875c7.230469-4.03125 12.191406-11.613281 12.359375-20.429687l53.222656-17.746094c4.390625 5.617187 11.160157 9.296875 18.824219 9.296875 10.878906 0 19.976562-7.320312 22.921875-17.257812 7.878906-1.222657 15.414063-3.335938 22.492187-6.308594 6.890626 20.511718 10.585938 41.8125 10.585938 63.566406zm-64-64c0-4.40625 3.59375-8 8-8s8 3.59375 8 8-3.59375 8-8 8-8-3.59375-8-8zm30.121094-9.296875c-3.640625-8.632813-12.183594-14.703125-22.121094-14.703125-8.40625 0-15.792969 4.359375-20.078125 10.929688-30.890625-11.578126-51.921875-41.457032-51.921875-74.929688 0-44.113281 35.886719-80 80-80s80 35.886719 80 80c0 39.191406-27.9375 71.992188-65.878906 78.703125zm-38.121094 65.296875h16v16h-16zm32 0h16v16h-16zm-64 0h16v16h-16zm0 0" fill="url(#a)"/></svg>